<svg width="200" height="200" viewBox="0 0 200 200" fill="none" xmlns="http://www.w3.org/2000/svg">
<g filter="url(#filter0_d_18_16)">
<path d="M196 96C196 96 153.019 96 100 96C46.9807 96 4 96 4 96C4 42.9807 46.9807 0 100 0C153.019 0 196 42.9807 196 96Z" fill="#ED3237"/>
<path d="M4.52683 95.5H4.50128C4.77048 42.9869 47.4236 0.5 100 0.5C152.576 0.5 195.23 42.9869 195.499 95.5H195.473H195.441H195.408H195.374H195.339H195.303H195.266H195.229H195.19H195.151H195.11H195.069H195.026H194.983H194.939H194.894H194.848H194.801H194.753H194.704H194.655H194.604H194.553H194.501H194.447H194.393H194.338H194.282H194.225H194.168H194.109H194.05H193.989H193.928H193.866H193.803H193.739H193.674H193.608H193.542H193.474H193.406H193.337H193.267H193.196H193.124H193.051H192.978H192.903H192.828H192.752H192.675H192.597H192.518H192.439H192.358H192.277H192.195H192.112H192.028H191.943H191.858H191.771H191.684H191.596H191.507H191.417H191.327H191.235H191.143H191.05H190.956H190.861H190.766H190.669H190.572H190.474H190.375H190.275H190.175H190.073H189.971H189.868H189.764H189.66H189.554H189.448H189.341H189.233H189.125H189.015H188.905H188.794H188.682H188.569H188.456H188.342H188.227H188.111H187.994H187.877H187.758H187.639H187.52H187.399H187.278H187.156H187.033H186.909H186.785H186.659H186.533H186.407H186.279H186.151H186.022H185.892H185.761H185.63H185.498H185.365H185.231H185.097H184.962H184.826H184.689H184.551H184.413H184.274H184.135H183.994H183.853H183.711H183.569H183.425H183.281H183.136H182.991H182.844H182.697H182.549H182.401H182.252H182.102H181.951H181.8H181.648H181.495H181.341H181.187H181.032H180.876H180.72H180.562H180.405H180.246H180.087H179.927H179.766H179.605H179.443H179.28H179.116H178.952H178.787H178.622H178.455H178.289H178.121H177.953H177.784H177.614H177.443H177.272H177.101H176.928H176.755H176.581H176.407H176.232H176.056H175.879H175.702H175.525H175.346H175.167H174.987H174.807H174.626H174.444H174.261H174.078H173.895H173.71H173.525H173.339H173.153H172.966H172.778H172.59H172.401H172.212H172.021H171.831H171.639H171.447H171.254H171.061H170.867H170.672H170.477H170.281H170.085H169.888H169.69H169.491H169.292H169.093H168.893H168.692H168.49H168.288H168.086H167.882H167.678H167.474H167.269H167.063H166.857H166.65H166.442H166.234H166.026H165.816H165.606H165.396H165.185H164.973H164.761H164.548H164.335H164.121H163.906H163.691H163.475H163.259H163.042H162.825H162.607H162.388H162.169H161.949H161.729H161.508H161.287H161.065H160.842H160.619H160.396H160.171H159.947H159.721H159.496H159.269H159.042H158.815H158.587H158.358H158.129H157.899H157.669H157.438H157.207H156.975H156.743H156.51H156.277H156.043H155.808H155.573H155.338H155.102H154.865H154.628H154.39H154.152H153.914H153.675H153.435H153.195H152.954H152.713H152.471H152.229H151.986H151.743H151.499H151.255H151.01H150.765H150.52H150.273H150.027H149.779H149.532H149.284H149.035H148.786H148.536H148.286H148.036H147.785H147.533H147.281H147.029H146.776H146.522H146.268H146.014H145.759H145.504H145.248H144.992H144.735H144.478H144.221H143.963H143.704H143.445H143.186H142.926H142.666H142.405H142.144H141.882H141.62H141.357H141.094H140.831H140.567H140.303H140.038H139.773H139.508H139.242H138.975H138.708H138.441H138.173H137.905H137.637H137.368H137.098H136.828H136.558H136.287H136.016H135.745H135.473H135.201H134.928H134.655H134.382H134.108H133.833H133.559H133.284H133.008H132.732H132.456H132.179H131.902H131.625H131.347H131.069H130.79H130.511H130.232H129.952H129.672H129.391H129.11H128.829H128.547H128.265H127.983H127.7H127.417H127.134H126.85H126.566H126.281H125.996H125.711H125.425H125.139H124.853H124.566H124.279H123.992H123.704H123.416H123.128H122.839H122.55H122.26H121.97H121.68H121.39H121.099H120.808H120.516H120.225H119.933H119.64H119.347H119.054H118.761H118.467H118.173H117.879H117.584H117.289H116.994H116.698H116.402H116.106H115.809H115.512H115.215H114.918H114.62H114.322H114.023H113.725H113.426H113.126H112.827H112.527H112.227H111.926H111.626H111.325H111.023H110.722H110.42H110.118H109.815H109.513H109.21H108.907H108.603H108.299H107.995H107.691H107.386H107.081H106.776H106.471H106.165H105.859H105.553H105.247H104.94H104.633H104.326H104.019H103.711H103.403H103.095H102.786H102.478H102.169H101.86H101.55H101.241H100.931H100.621H100.311H100H99.6895H99.3791H99.0691H98.7592H98.4496H98.1402H97.8311H97.5222H97.2135H96.9051H96.597H96.289H95.9814H95.674H95.3668H95.0599H94.7532H94.4468H94.1406H93.8347H93.5291H93.2237H92.9186H92.6137H92.3091H92.0048H91.7008H91.397H91.0935H90.7902H90.4873H90.1846H89.8821H89.58H89.2782H88.9766H88.6753H88.3743H88.0735H87.7731H87.473H87.1731H86.8735H86.5743H86.2753H85.9766H85.6782H85.3801H85.0824H84.7849H84.4877H84.1908H83.8943H83.598H83.302H83.0064H82.7111H82.4161H82.1214H81.827H81.5329H81.2392H80.9458H80.6526H80.3599H80.0674H79.7753H79.4835H79.192H78.9009H78.6101H78.3196H78.0295H77.7397H77.4502H77.1611H76.8724H76.5839H76.2958H76.0081H75.7207H75.4337H75.147H74.8606H74.5746H74.289H74.0037H73.7188H73.4343H73.1501H72.8662H72.5828H72.2997H72.0169H71.7345H71.4525H71.1709H70.8896H70.6088H70.3283H70.0481H69.7684H69.489H69.21H68.9314H68.6532H68.3753H68.0979H67.8208H67.5441H67.2679H66.992H66.7165H66.4414H66.1667H65.8924H65.6185H65.345H65.0719H64.7992H64.5269H64.2551H63.9836H63.7125H63.4419H63.1717H62.9019H62.6325H62.3635H62.0949H61.8268H61.5591H61.2918H61.0249H60.7585H60.4925H60.2269H59.9618H59.697H59.4328H59.1689H58.9055H58.6426H58.38H58.1179H57.8563H57.5951H57.3344H57.0741H56.8142H56.5548H56.2958H56.0374H55.7793H55.5217H55.2646H55.0079H54.7517H54.496H54.2407H53.9859H53.7315H53.4777H53.2242H52.9713H52.7188H52.4669H52.2153H51.9643H51.7137H51.4637H51.2141H50.9649H50.7163H50.4682H50.2205H49.9733H49.7267H49.4805H49.2348H48.9896H48.7449H48.5007H48.257H48.0138H47.7711H47.5289H47.2872H47.046H46.8053H46.5651H46.3255H46.0863H45.8477H45.6096H45.372H45.1349H44.8984H44.6623H44.4268H44.1918H43.9573H43.7234H43.49H43.2571H43.0248H42.7929H42.5617H42.3309H42.1007H41.871H41.6419H41.4133H41.1853H40.9578H40.7308H40.5044H40.2786H40.0533H39.8285H39.6043H39.3807H39.1576H38.9351H38.7131H38.4917H38.2709H38.0506H37.8309H37.6117H37.3932H37.1751H36.9577H36.7408H36.5246H36.3088H36.0937H35.8791H35.6652H35.4518H35.239H35.0267H34.8151H34.604H34.3936H34.1837H33.9744H33.7657H33.5576H33.3501H33.1432H32.9369H32.7312H32.5261H32.3216H32.1177H31.9145H31.7118H31.5097H31.3083H31.1074H30.9072H30.7076H30.5086H30.3102H30.1125H29.9153H29.7188H29.523H29.3277H29.1331H28.9391H28.7457H28.5529H28.3608H28.1694H27.9785H27.7883H27.5988H27.4098H27.2216H27.0339H26.8469H26.6606H26.4749H26.2899H26.1055H25.9217H25.7386H25.5562H25.3744H25.1933H25.0129H24.8331H24.6539H24.4755H24.2977H24.1205H23.9441H23.7683H23.5931H23.4187H23.2449H23.0718H22.8994H22.7276H22.5566H22.3862H22.2165H22.0475H21.8791H21.7115H21.5445H21.3783H21.2127H21.0478H20.8836H20.7202H20.5574H20.3953H20.2339H20.0732H19.9132H19.754H19.5954H19.4375H19.2804H19.124H18.9682H18.8132H18.6589H18.5054H18.3525H18.2004H18.0489H17.8982H17.7483H17.599H17.4505H17.3027H17.1557H17.0093H16.8638H16.7189H16.5748H16.4314H16.2888H16.1469H16.0057H15.8653H15.7256H15.5867H15.4485H15.3111H15.1744H15.0385H14.9033H14.7689H14.6352H14.5023H14.3702H14.2388H14.1082H13.9784H13.8493H13.721H13.5934H13.4666H13.3406H13.2154H13.0909H12.9673H12.8444H12.7222H12.6009H12.4803H12.3605H12.2416H12.1233H12.0059H11.8893H11.7735H11.6584H11.5442H11.4307H11.318H11.2062H11.0951H10.9848H10.8754H10.7667H10.6589H10.5518H10.4456H10.3402H10.2356H10.1318H10.0288H9.92661H9.82525H9.72472H9.62501H9.52611H9.42805H9.3308H9.23438H9.13879H9.04403H8.9501H8.857H8.76474H8.67331H8.58272H8.49296H8.40405H8.31597H8.22874H8.14235H8.05681H7.97211H7.88826H7.80526H7.72311H7.64182H7.56138H7.48179H7.40307H7.3252H7.24819H7.17204H7.09675H7.02233H6.94878H6.87609H6.80427H6.73333H6.66325H6.59405H6.52572H6.45827H6.3917H6.326H6.26119H6.19726H6.13421H6.07204H6.01077H5.95038H5.89088H5.83227H5.77456H5.71773H5.66181H5.60678H5.55265H5.49942H5.44709H5.39566H5.34514H5.29552H5.24681H5.19901H5.15212H5.10614H5.06107H5.01692H4.97368H4.93136H4.88996H4.84948H4.80993H4.77129H4.73358H4.6968H4.66094H4.62602H4.59202H4.55896H4.52683Z" stroke="black"/>
</g>
<g filter="url(#filter1_d_18_16)">
<path d="M3.99998 96C3.99998 96 46.9806 96 100 96C153.019 96 196 96 196 96C196 149.019 153.019 192 100 192C46.9806 192 3.99998 149.019 3.99998 96Z" fill="#D9D9D9"/>
<path d="M195.473 96.5H195.499C195.23 149.013 152.576 191.5 100 191.5C47.4236 191.5 4.77045 149.013 4.50126 96.5H4.5268H4.55894H4.592H4.626H4.66093H4.69677H4.73356H4.77126H4.8099H4.84946H4.88995H4.93134H4.97366H5.0169H5.06104H5.10612H5.15209H5.19898H5.24679H5.29549H5.34512H5.39564H5.44706H5.4994H5.55262H5.60676H5.66178H5.7177H5.77453H5.83225H5.89086H5.95036H6.01075H6.07201H6.13418H6.19723H6.26116H6.32598H6.39167H6.45824H6.5257H6.59403H6.66323H6.7333H6.80425H6.87608H6.94875H7.02232H7.09673H7.17202H7.24816H7.32517H7.40304H7.48177H7.56135H7.64179H7.72309H7.80524H7.88824H7.97208H8.05679H8.14233H8.22872H8.31594H8.40402H8.49294H8.5827H8.67329H8.76472H8.85699H8.95008H9.04401H9.13877H9.23437H9.33077H9.42802H9.52609H9.62498H9.72469H9.82523H9.92658H10.0288H10.1317H10.2355H10.3402H10.4456H10.5518H10.6589H10.7667H10.8754H10.9848H11.0951H11.2062H11.318H11.4307H11.5441H11.6584H11.7734H11.8893H12.0059H12.1233H12.2415H12.3605H12.4803H12.6009H12.7222H12.8443H12.9672H13.0909H13.2154H13.3406H13.4666H13.5934H13.7209H13.8493H13.9783H14.1082H14.2388H14.3702H14.5023H14.6352H14.7689H14.9033H15.0385H15.1744H15.3111H15.4485H15.5867H15.7256H15.8653H16.0057H16.1468H16.2887H16.4314H16.5748H16.7189H16.8637H17.0093H17.1556H17.3027H17.4505H17.599H17.7483H17.8982H18.0489H18.2003H18.3525H18.5053H18.6589L18.8132 96.5H18.9682H19.1239H19.2804H19.4375H19.5954H19.7539H19.9132H20.0732H20.2339H20.3953H20.5574H20.7201H20.8836H21.0478H21.2127H21.3783H21.5445H21.7115H21.8791H22.0474H22.2165H22.3862H22.5565H22.7276H22.8993H23.0718H23.2449H23.4187H23.5931H23.7682H23.944H24.1205H24.2976H24.4754H24.6539H24.833H25.0128H25.1933H25.3744H25.5562H25.7386H25.9217H26.1054H26.2899H26.4749H26.6606H26.8469H27.0339H27.2216H27.4098H27.5988H27.7883H27.9785H28.1693H28.3608H28.5529H28.7457H28.939H29.133H29.3277H29.5229H29.7188H29.9153H30.1125H30.3102H30.5086H30.7076H30.9072H31.1074H31.3083H31.5097H31.7118H31.9145H32.1177H32.3216H32.5261H32.7312H32.9369H33.1432H33.3501H33.5576H33.7657H33.9744H34.1837H34.3936H34.604H34.8151H35.0267H35.2389H35.4517H35.6651H35.8791H36.0937H36.3088H36.5245H36.7408H36.9577H37.1751H37.3931H37.6117H37.8309H38.0506H38.2709H38.4917H38.7131H38.9351H39.1576H39.3807H39.6043H39.8285H40.0533H40.2786H40.5044H40.7308H40.9578H41.1853H41.4133H41.6419H41.871H42.1007H42.3309H42.5617H42.7929H43.0247H43.2571H43.49H43.7234H43.9573H44.1918H44.4268H44.6623H44.8983H45.1349H45.372H45.6096H45.8477L46.0863 96.5H46.3255H46.5651H46.8053H47.046H47.2872H47.5289H47.7711H48.0137H48.257H48.5007H48.7449H48.9896H49.2348H49.4805H49.7266H49.9733H50.2205H50.4682H50.7163H50.9649H51.214H51.4636H51.7137H51.9643H52.2153H52.4668H52.7188H52.9713H53.2242H53.4776H53.7315H53.9859H54.2407H54.496H54.7517H55.0079H55.2646H55.5217H55.7793H56.0373H56.2958H56.5548H56.8142H57.074H57.3343H57.5951H57.8563H58.1179H58.38H58.6425H58.9055H59.1689H59.4328H59.697H59.9617H60.2269H60.4925H60.7585H61.0249H61.2918H61.5591H61.8268H62.0949H62.3635H62.6324H62.9018H63.1717H63.4419H63.7125H63.9836H64.2551H64.5269H64.7992H65.0719H65.345H65.6185H65.8924H66.1667H66.4414H66.7165H66.992H67.2679H67.5441H67.8208H68.0979H68.3753H68.6532H68.9314H69.21H69.489H69.7684H70.0481H70.3282H70.6087H70.8896H71.1709H71.4525H71.7345H72.0169H72.2996H72.5827H72.8662H73.15L73.4343 96.5H73.7188H74.0037H74.289H74.5746H74.8606H75.147H75.4337H75.7207H76.0081H76.2958H76.5839H76.8723H77.1611H77.4502H77.7397H78.0295H78.3196H78.6101H78.9009H79.192H79.4835H79.7753H80.0674H80.3599H80.6526H80.9457H81.2392H81.5329H81.827H82.1214H82.4161H82.7111H83.0064H83.302H83.598H83.8942H84.1908H84.4877H84.7849H85.0823H85.3801H85.6782H85.9766H86.2753H86.5743H86.8735H87.1731H87.473H87.7731H88.0735H88.3743H88.6753H88.9766H89.2781H89.58H89.8821H90.1845H90.4872H90.7902H91.0934H91.397H91.7007H92.0048H92.3091H92.6137H92.9186H93.2237H93.5291H93.8347H94.1406H94.4468H94.7532H95.0598H95.3668H95.6739H95.9814H96.289H96.597H96.9051H97.2135H97.5222H97.8311H98.1402H98.4496H98.7592H99.069H99.3791H99.6894H100H100.311L100.621 96.5H100.931H101.241H101.55H101.86H102.169H102.478H102.786H103.095H103.403H103.711H104.019H104.326H104.633H104.94H105.247H105.553H105.859H106.165H106.471H106.776H107.081H107.386H107.691H107.995H108.299H108.603H108.907H109.21H109.513H109.815H110.118H110.42H110.722H111.023H111.325H111.626H111.926H112.227H112.527H112.827H113.126H113.426H113.725H114.023H114.322H114.62H114.918H115.215H115.512H115.809H116.106H116.402H116.698H116.994H117.289H117.584H117.879H118.173H118.467H118.761H119.054H119.347H119.64H119.933H120.225H120.516H120.808H121.099H121.39H121.68H121.97H122.26H122.55H122.839H123.128H123.416H123.704H123.992H124.279H124.566H124.853H125.139H125.425H125.711H125.996H126.281H126.566H126.85H127.134H127.417H127.7L127.983 96.5H128.265H128.547H128.829H129.11H129.391H129.672H129.952H130.232H130.511H130.79H131.069H131.347H131.625H131.902H132.179H132.456H132.732H133.008H133.284H133.559H133.833H134.108H134.381H134.655H134.928H135.201H135.473H135.745H136.016H136.287H136.558H136.828H137.098H137.368H137.637H137.905H138.173H138.441H138.708H138.975H139.241H139.508H139.773H140.038H140.303H140.567H140.831H141.094H141.357H141.62H141.882H142.144H142.405H142.666H142.926H143.186H143.445H143.704H143.963H144.221H144.478H144.735H144.992H145.248H145.504H145.759H146.014H146.268H146.522H146.776H147.029H147.281H147.533H147.785H148.036H148.286H148.536H148.786H149.035H149.284H149.532H149.779H150.027H150.273H150.52H150.765H151.01H151.255H151.499H151.743H151.986H152.229H152.471H152.713H152.954H153.195H153.435H153.675H153.914H154.152H154.39H154.628H154.865H155.102L155.338 96.5H155.573H155.808H156.043H156.277H156.51H156.743H156.975H157.207H157.438H157.669H157.899H158.129H158.358H158.587H158.815H159.042H159.269H159.496H159.721H159.947H160.171H160.396H160.619H160.842H161.065H161.287H161.508H161.729H161.949H162.169H162.388H162.607H162.825H163.042H163.259H163.475H163.691H163.906H164.121H164.335H164.548H164.761H164.973H165.185H165.396H165.606H165.816H166.026H166.234H166.442H166.65H166.857H167.063H167.269H167.474H167.678H167.882H168.086H168.288H168.49H168.692H168.893H169.093H169.292H169.491H169.69H169.888H170.085H170.281H170.477H170.672H170.867H171.061H171.254H171.447H171.639H171.831H172.021H172.212H172.401H172.59H172.778H172.966H173.153H173.339H173.525H173.71H173.895H174.078H174.261H174.444H174.626H174.807H174.987H175.167H175.346H175.525H175.702H175.879H176.056H176.232H176.407H176.581H176.755H176.928H177.101H177.272H177.443H177.614H177.784H177.953H178.121H178.289H178.455H178.622H178.787H178.952H179.116H179.28H179.443H179.605H179.766H179.927H180.087H180.246H180.405H180.562H180.72H180.876H181.032H181.187H181.341H181.495H181.648H181.8H181.951H182.102H182.252L182.401 96.5H182.549H182.697H182.844H182.991H183.136H183.281H183.425H183.569H183.711H183.853H183.994H184.135H184.274H184.413H184.551H184.689H184.826H184.962H185.097H185.231H185.365H185.498H185.63H185.761H185.892H186.022H186.151H186.279H186.407H186.533H186.659H186.785H186.909H187.033H187.156H187.278H187.399H187.52H187.639H187.758H187.877H187.994H188.111H188.227H188.342H188.456H188.569H188.682H188.794H188.905H189.015H189.125H189.233H189.341H189.448H189.554H189.66H189.764H189.868H189.971H190.073H190.175H190.275H190.375H190.474H190.572H190.669H190.766H190.861H190.956H191.05H191.143H191.235H191.327H191.417H191.507H191.596H191.684H191.771H191.858H191.943H192.028H192.112H192.195H192.277H192.358H192.439H192.518H192.597H192.675H192.752H192.828H192.903H192.978H193.051H193.124H193.196H193.267H193.337H193.406H193.474H193.542H193.608H193.674H193.739H193.803H193.866H193.928H193.989H194.05H194.109H194.168H194.225H194.282H194.338H194.393H194.447H194.501H194.553H194.604H194.655H194.704H194.753H194.801H194.848H194.894H194.939H194.983H195.026H195.069H195.11H195.151H195.19H195.229H195.266H195.303H195.339H195.374H195.408H195.441H195.473Z" stroke="black"/>
</g>
<path d="M196 96L4 96" stroke="black" stroke-width="11"/>
<circle cx="100" cy="96" r="39.5" fill="#D9D9D9" stroke="black" stroke-width="5"/>
<path d="M125.768 97.7678C126.744 96.7915 126.744 95.2085 125.768 94.2322L109.858 78.3223C108.882 77.346 107.299 77.346 106.322 78.3223C105.346 79.2986 105.346 80.8816 106.322 81.8579L120.464 96L106.322 110.142C105.346 111.118 105.346 112.701 106.322 113.678C107.299 114.654 108.882 114.654 109.858 113.678L125.768 97.7678ZM76 98.5H124V93.5H76V98.5Z" fill="black"/>
<defs>
<filter id="filter0_d_18_16" x="0" y="0" width="200" height="104" filterUnits="userSpaceOnUse" color-interpolation-filters="sRGB">
<feFlood flood-opacity="0" result="BackgroundImageFix"/>
<feColorMatrix in="SourceAlpha" type="matrix" values="0 0 0 0 0 0 0 0 0 0 0 0 0 0 0 0 0 0 127 0" result="hardAlpha"/>
<feOffset dy="4"/>
<feGaussianBlur stdDeviation="2"/>
<feComposite in2="hardAlpha" operator="out"/>
<feColorMatrix type="matrix" values="0 0 0 0 0 0 0 0 0 0 0 0 0 0 0 0 0 0 0.25 0"/>
<feBlend mode="normal" in2="BackgroundImageFix" result="effect1_dropShadow_18_16"/>
<feBlend mode="normal" in="SourceGraphic" in2="effect1_dropShadow_18_16" result="shape"/>
</filter>
<filter id="filter1_d_18_16" x="0" y="96" width="200" height="104" filterUnits="userSpaceOnUse" color-interpolation-filters="sRGB">
<feFlood flood-opacity="0" result="BackgroundImageFix"/>
<feColorMatrix in="SourceAlpha" type="matrix" values="0 0 0 0 0 0 0 0 0 0 0 0 0 0 0 0 0 0 127 0" result="hardAlpha"/>
<feOffset dy="4"/>
<feGaussianBlur stdDeviation="2"/>
<feComposite in2="hardAlpha" operator="out"/>
<feColorMatrix type="matrix" values="0 0 0 0 0 0 0 0 0 0 0 0 0 0 0 0 0 0 0.25 0"/>
<feBlend mode="normal" in2="BackgroundImageFix" result="effect1_dropShadow_18_16"/>
<feBlend mode="normal" in="SourceGraphic" in2="effect1_dropShadow_18_16" result="shape"/>
</filter>
</defs>
</svg>
